{"title":"Vanessa Hudgens@The Tonight Show with Jay Leno March 20,2013[Ori","uid":8282782,"size":473686021,"categoryP":"video","categoryS":"hd___tv_shows","magnet":"?xt=urn:btih:6d8d157b90fca5776e4837cc41da89a86ba0ddaa&amp;dn=Vanessa+Hudgens%40The+Tonight+Show+with+Jay+Leno+March+20%2C2013%5BOri&amp;tr=udp%3A%2F%2Ftracker.openbittorrent.com%3A80&amp;tr=udp%3A%2F%2Fopen.demonii.com%3A1337&amp;tr=udp%3A%2F%2Ftracker.coppersurfer.tk%3A6969&amp;tr=udp%3A%2F%2Fexodus.desync.com%3A6969","seeders":1,"leechers":0,"uploader":"Orion_Me","files":-1,"time":1363879335,"description":"\n_____________________________________________________________________________ \n       ooooooo        ooooooo       ooo       ooooooo      ooooo      ooo\n    ooo       ooo  ooo       ooo    ooo    ooo       ooo   oooooo     ooo \n    ooo       ooo  ooo      ooo     ooo    ooo       ooo   ooo ooo    ooo \n    ooo       ooo  ooo     ooo      ooo    ooo       ooo   ooo  ooo   ooo \n    ooo       ooo  oooooooooo       ooo    ooo       ooo   ooo   ooo  ooo\n    ooo       ooo  ooo     ooo      ooo    ooo       ooo   ooo    ooo ooo\n    ooo       ooo  ooo      ooo     ooo    ooo       ooo   ooo     oooooo\n       ooooooo     ooo       ooo    ooo       ooooooo      ooo      ooooo\n          \n                                                 \n                        ooooooo ooooooo         ooooooo       \n                      ooo     ooo     ooo     ooo\n                      ooo     ooo     ooo     ooo\n                      ooo     ooo     ooo     ooooooooo\n                      ooo     ooo     ooo     ooooooooo\n                      ooo     ooo     ooo     ooo\n                      ooo     ooo     ooo     ooo\n                      ooo     ooo     ooo       ooooooo\n______________________________________________________________________________\n\nKEEP LOOKING FORWARD TO FUTURE RELEASES.......Please seed as long as you can!!\n\n &lt;a href=&quot;\nhttp://bayimg.com/mAkLAAAEN&quot; rel=&quot;nofollow&quot; target=&quot;_NEW&quot;&gt;\nhttp://bayimg.com/mAkLAAAEN&lt;/a&gt;\n\n\nGeneral\nComplete name                    : Vanessa Anne Hudgens@The Tonight Show with Jay Leno March 20,2013 720p HD[Orion_Me].mkv\nFormat                           : Matroska\nFile size                        : 435 MiB\nDuration                         : 12mn 0s\nOverall bit rate                 : 5 057 Kbps\nEncoded date                     : UTC 2013-03-21 08:47:44\nWriting application              : mkvmerge v3.3.0 ('Language') built on Mar 24 2010 14:59:24\nWriting library                  : libebml v0.8.0 + libmatroska v0.9.0\n\nVideo\nID                               : 1\nFormat                           : AVC\nFormat/Info                      : Advanced Video Codec\nFormat profile                   : &lt;a class=&quot;__cf_email__&quot; href=&quot;/cdn-cgi/l/email-protection&quot; data-cfemail=&quot;e2aa8b858aa2aed6ccd3&quot;&gt;[email&amp;#160;protected]&lt;/a&gt;&lt;script cf-hash='f9e31' type=&quot;text/javascript&quot;&gt;\n/* &lt;![CDATA[ */!function(){try{var t=&quot;currentScript&quot;in document?document.currentScript:function(){for(var t=document.getElementsByTagName(&quot;script&quot;),e=t.length;e--;)if(t[e].getAttribute(&quot;cf-hash&quot;))return t[e]}();if(t&amp;&amp;t.previousSibling){var e,r,n,i,c=t.previousSibling,a=c.getAttribute(&quot;data-cfemail&quot;);if(a){for(e=&quot;&quot;,r=parseInt(a.substr(0,2),16),n=2;a.length-n;n+=2)i=parseInt(a.substr(n,2),16)^r,e+=String.fromCharCode(i);e=document.createTextNode(e),c.parentNode.replaceChild(e,c)}}}catch(u){}}();/* ]]&gt; */&lt;/script&gt;\nFormat settings, CABAC           : Yes\nFormat settings, ReFrames        : 5 frames\nMuxing mode                      : Container profile=&lt;a class=&quot;__cf_email__&quot; href=&quot;/cdn-cgi/l/email-protection&quot; data-cfemail=&quot;0a5f646164657d644a3e243b&quot;&gt;[email&amp;#160;protected]&lt;/a&gt;&lt;script cf-hash='f9e31' type=&quot;text/javascript&quot;&gt;\n/* &lt;![CDATA[ */!function(){try{var t=&quot;currentScript&quot;in document?document.currentScript:function(){for(var t=document.getElementsByTagName(&quot;script&quot;),e=t.length;e--;)if(t[e].getAttribute(&quot;cf-hash&quot;))return t[e]}();if(t&amp;&amp;t.previousSibling){var e,r,n,i,c=t.previousSibling,a=c.getAttribute(&quot;data-cfemail&quot;);if(a){for(e=&quot;&quot;,r=parseInt(a.substr(0,2),16),n=2;a.length-n;n+=2)i=parseInt(a.substr(n,2),16)^r,e+=String.fromCharCode(i);e=document.createTextNode(e),c.parentNode.replaceChild(e,c)}}}catch(u){}}();/* ]]&gt; */&lt;/script&gt;\nCodec ID                         : V_MPEG4/ISO/AVC\nDuration                         : 12mn 0s\nBit rate                         : 4 573 Kbps\nWidth                            : 1 280 pixels\nHeight                           : 720 pixels\nDisplay aspect ratio             : 16:9\nFrame rate                       : 59.940 fps\nColor space                      : YUV\nChroma subsampling               : 4:2:0\nBit depth                        : 8 bits\nScan type                        : Progressive\nBits/(Pixel*Frame)               : 0.083\nStream size                      : 393 MiB (90%)\nLanguage                         : English\n\nAudio\nID                               : 2\nFormat                           : AC-3\nFormat/Info                      : Audio Coding 3\nMode extension                   : CM (complete main)\nCodec ID                         : A_AC3\nDuration                         : 12mn 0s\nBit rate mode                    : Constant\nBit rate                         : 384 Kbps\nChannel(s)                       : 2 channels\nChannel positions                : Front: L R\nSampling rate                    : 48.0 KHz\nBit depth                        : 16 bits\nVideo delay                      : 3ms\nStream size                      : 33.0 MiB (8%)\n\n\n            --The Most Important Things In Life Aren't Free--\n\n\n","torrent":{"xt":"urn:btih:6d8d157b90fca5776e4837cc41da89a86ba0ddaa","amp;dn":"Vanessa+Hudgens%40The+Tonight+Show+with+Jay+Leno+March+20%2C2013%5BOri","amp;tr":["udp%3A%2F%2Ftracker.openbittorrent.com%3A80","udp%3A%2F%2Fopen.demonii.com%3A1337","udp%3A%2F%2Ftracker.coppersurfer.tk%3A6969","udp%3A%2F%2Fexodus.desync.com%3A6969"],"infoHash":"6d8d157b90fca5776e4837cc41da89a86ba0ddaa","infoHashBuffer":{"type":"Buffer","data":[109,141,21,123,144,252,165,119,110,72,55,204,65,218,137,168,107,160,221,170]},"announce":[],"urlList":[]}}